<svg preserveAspectRatio="none" width="100%" height="100%" overflow="visible" style="display: block;" viewBox="0 0 143.565 118.163" fill="none" xmlns="http://www.w3.org/2000/svg">
<g id="Group 18">
<path id="Vector" d="M123.769 91.776L22.3473 79.6851C13.8846 78.6684 5.42198 83.12 1.7914 91.1989C-0.507104 96.31 -1.13395 102.575 3.20186 109.225C7.53767 115.875 14.9294 118.953 22.3473 117.991L123.403 104.993" fill="var(--fill-0, #8E6EAB)"/>
<path id="Vector_2" d="M130.82 67.0997L61.6822 27.9146C55.9099 24.6445 48.6749 25.2491 43.8689 29.9481C40.8391 32.9158 38.6711 37.2025 39.9771 43.2479C41.2308 49.1559 45.6972 53.7174 51.2606 55.2837L126.954 76.4425" fill="var(--fill-0, #8E6EAB)"/>
<path id="Vector_3" d="M143.565 50.1737L114.338 4.88822C111.909 1.1236 107.469 -0.854878 103.263 0.3542C100.625 1.12361 98.1178 2.93727 97.0992 6.92173C96.0805 10.9062 97.4126 14.9181 100.234 17.6385L138.577 54.4329" fill="var(--fill-0, #8E6EAB)"/>
</g>
</svg>
